<svg viewBox="0 0 330 330" style="enable-background:new 0 0 330 330" xml:space="preserve" xmlns="http://www.w3.org/2000/svg"><path d="m325.607 304.394-50.961-50.961C296.725 226.645 310 192.344 310 155 310 69.533 240.467 0 155 0 69.532 0 0 69.533 0 155s69.532 155 155 155c37.344 0 71.644-13.276 98.434-35.354l50.961 50.961A14.951 14.951 0 0 0 315 330c3.84 0 7.678-1.465 10.607-4.394 5.858-5.858 5.858-15.354 0-21.212zM30 155C30 86.075 86.074 30 155 30s125 56.075 125 125-56.074 125-125 125S30 223.926 30 155z" style="fill:#fff;fill-opacity:1;stroke:#1c0000;stroke-opacity:1"/><text xml:space="preserve" style="font-style:normal;font-weight:400;font-size:40px;line-height:1.25;font-family:sans-serif;fill:#fff;fill-opacity:1;stroke:#fff;stroke-opacity:1" x="85.828" y="147.33"><tspan x="85.828" y="147.33">STACK</tspan></text><text xml:space="preserve" style="font-style:normal;font-weight:400;font-size:40px;line-height:1.25;font-family:sans-serif;fill:#fff;fill-opacity:1;stroke:#fff;stroke-opacity:1" x="42.684" y="199.652"><tspan x="42.684" y="199.652">OVERFLOW</tspan></text></svg>